# xmcd
#
# Track frame offsets:
# 150
# 12378
# 32359
# 49636
# 57186
# 72483
# 81245
# 88521
# 99788
# 111975
# 119886
# 128752
# 136553
# 145190
# 156993
# 170489
# 184053
# 203195
# 218140
# 228856
# 241807
# 251087
# 264795
# 272136
# 285757
# 302159
# 322064
#
# Disc length: 4499 seconds
#
#
# Revision: 0
# Processed by: cddbd v1.5.1PL2 Copyright (c) Steve Scherf et al.
# Submitted via: FreeRIP 2.944 
#
DISCID=7911911b
DTITLE=RP - RP
DYEAR=2006
DGENRE=RP
TTITLE0=Lai Dzîvo
TTITLE1=Tikai Vienu Reiz
TTITLE2=Man Nav Laika
TTITLE3=Sudraba Pulkstenîtis
TTITLE4=Pçdçjais Valsis
TTITLE5=Zili Brînumi
TTITLE6=Ar Dievu Neveiksmes
TTITLE7=Neskaties Pulkstenî
TTITLE8=La Luna
TTITLE9=Aiziet! (ver actiòas ciet)
TTITLE10=Nevar bût
TTITLE11=Es Smejos
TTITLE12=Privâtâ Dzîve
TTITLE13=Ja tevis Nebûtu
TTITLE14=Kabîrija
TTITLE15=Vectçtiòð un Vecmâmiòa
TTITLE16=Y`love Who Y`love
TTITLE17=Do You Know
TTITLE18=Dulla diena
TTITLE19=Anniòa Vanniòâ
TTITLE20=Lâcis
TTITLE21=Âzîtis
TTITLE22=Ai, zeme, zemîte
TTITLE23=Dîvainâ dziesmiòa
TTITLE24=nezin
TTITLE25=nezin
TTITLE26=nezin
EXTD=RP
EXTT0=
EXTT1=
EXTT2=
EXTT3=
EXTT4=
EXTT5=
EXTT6=
EXTT7=
EXTT8=
EXTT9=
EXTT10=
EXTT11=
EXTT12=
EXTT13=
EXTT14=
EXTT15=
EXTT16=
EXTT17=
EXTT18=
EXTT19=
EXTT20=
EXTT21=
EXTT22=
EXTT23=
EXTT24=
EXTT25=
EXTT26=
PLAYORDER=
